<?xml version="1.0" encoding="UTF-8" standalone="no"?>
<svg
   xmlns:dc="http://purl.org/dc/elements/1.1/"
   xmlns:cc="http://creativecommons.org/ns#"
   xmlns:rdf="http://www.w3.org/1999/02/22-rdf-syntax-ns#"
   xmlns:svg="http://www.w3.org/2000/svg"
   xmlns="http://www.w3.org/2000/svg"
   xmlns:sodipodi="http://sodipodi.sourceforge.net/DTD/sodipodi-0.dtd"
   xmlns:inkscape="http://www.inkscape.org/namespaces/inkscape"
   inkscape:version="1.0 (4035a4fb49, 2020-05-01)"
   sodipodi:docname="cur.svg"
   xml:space="preserve"
   enable-background="new 0 0 64 64"
   viewBox="0 0 64 64"
   height="64px"
   width="64px"
   y="0px"
   x="0px"
   id="Layer_1"
   version="1.1"><metadata
   id="metadata47"><rdf:RDF><cc:Work
       rdf:about=""><dc:format>image/svg+xml</dc:format><dc:type
         rdf:resource="http://purl.org/dc/dcmitype/StillImage" /><dc:title></dc:title></cc:Work></rdf:RDF></metadata><defs
   id="defs45" /><sodipodi:namedview
   inkscape:current-layer="Layer_1"
   inkscape:window-maximized="1"
   inkscape:window-y="-8"
   inkscape:window-x="-8"
   inkscape:cy="41.14313"
   inkscape:cx="23.073275"
   inkscape:zoom="8.1206794"
   showgrid="false"
   id="namedview43"
   inkscape:window-height="1002"
   inkscape:window-width="1280"
   inkscape:pageshadow="2"
   inkscape:pageopacity="0"
   guidetolerance="10"
   gridtolerance="10"
   objecttolerance="10"
   borderopacity="1"
   bordercolor="#666666"
   pagecolor="#ffffff" />
<g
   id="Rectangle_29">
	<g
   id="g4">
		<path
   id="path2"
   d="M3,59h26V27H3V59z M57,27v36h4V27H57z"
   fill="#BC9E85" />
	</g>
</g>
<g
   id="Rectangle_55">
	<g
   id="g9">
		<path
   id="path7"
   d="M7,31v10h18V31H7z M7,55h18V45H7V55z"
   fill="#E1C5AD" />
	</g>
</g>
<g
   id="Rectangle_54">
	<g
   id="g14">
		<rect
   id="rect12"
   height="14"
   width="12"
   fill="#FFFFFF"
   y="9"
   x="7" />
	</g>
</g>
<g
   id="Rectangle_39">
	<g
   id="g19">
		<rect
   id="rect17"
   height="16"
   width="26"
   fill="#CFEDFA"
   y="1"
   x="31" />
	</g>
</g>
<g
   id="Rectangle_28">
	<g
   id="g24">
		<path
   id="path22"
   d="M1,23v4h62v-4H1z M5,63h4v-4H5V63z M23,63h4v-4h-4V63z"
   fill="#BC9E85" />
	</g>
</g>
<g
   id="Rectangle_56">
	<g
   id="g29">
		<rect
   id="rect27"
   height="8"
   width="12"
   fill="#A0A8B6"
   y="1"
   x="7" />
	</g>
</g>
<g
   id="Rectangle_57">
	<g
   id="g34">
		<rect
   id="rect32"
   height="8"
   width="28"
   fill="#7D624B"
   y="27"
   x="29" />
	</g>
</g>
<g
   id="Rounded_Rectangle_23">
	<g
   id="g39">
		<path
   id="path37"
   d="M62,22H45v-4h11c1.104,0,2-0.896,2-2V2c0-1.104-0.896-2-2-2H32c-1.104,0-2,0.896-2,2v14    c0,1.104,0.896,2,2,2h11v4H20V1c0-0.553-0.447-1-1-1H7C6.447,0,6,0.447,6,1v21H2c-1.104,0-2,0.896-2,2v2c0,1.104,0.896,2,2,2v31    c0,0.552,0.447,1,1,1h1v2c0,1.104,0.896,2,2,2h2c1.104,0,2-0.896,2-2v-2h12v2c0,1.104,0.896,2,2,2h2c1.104,0,2-0.896,2-2v-2h1    c0.553,0,1-0.448,1-1V36h26v27c0,0.553,0.447,1,1,1h4c0.553,0,1-0.447,1-1V28c1.104,0,2-0.896,2-2v-2C64,22.896,63.104,22,62,22z     M32,16V2h24v14H32z M8,2h10v2H8V2z M8,6h10v2H8V6z M8,10h10v12H8V10z M8,62H6v-2h2V62z M26,62h-2v-2h2V62z M28,58H4V28h24V58z     M56,34H30v-6h26V34z M60,62h-2V28h2V62z M62,26H2v-2h60V26z M35.486,6.731l1.245-1.245c0.345-0.344,0.345-0.901,0-1.246    c-0.344-0.344-0.901-0.344-1.245,0L34.24,5.486c-0.344,0.344-0.344,0.901,0,1.245C34.585,7.076,35.143,7.076,35.486,6.731z     M40.486,4.24l-6.246,6.246c-0.344,0.344-0.344,0.901,0,1.245c0.345,0.345,0.902,0.345,1.246,0l6.245-6.245    c0.345-0.344,0.345-0.901,0-1.246C41.388,3.896,40.83,3.896,40.486,4.24z M26,30H6v12h20V30z M24,40H8v-8h16V40z M26,44H6v12h20    V44z M24,54H8v-8h16V54z M14,51h4c0.553,0,1-0.448,1-1c0-0.553-0.447-1-1-1h-4c-0.553,0-1,0.447-1,1C13,50.552,13.447,51,14,51z     M14,37h4c0.553,0,1-0.447,1-1s-0.447-1-1-1h-4c-0.553,0-1,0.447-1,1S13.447,37,14,37z M13,15c-1.104,0-2,0.896-2,2s0.896,2,2,2    s2-0.896,2-2S14.104,15,13,15z"
   fill="#2B3139" />
	</g>
</g>
<path
   id="path49"
   d="M 32.062671,9.0029626 V 2.1069879 H 44.007484 55.952297 V 9.0029626 15.898937 H 44.007484 32.062671 Z m 6.554881,-0.3410937 c 2.913621,-2.9136211 3.419654,-3.4727833 3.419654,-3.7786921 0,-0.5134293 -0.434196,-0.9290528 -0.970568,-0.9290528 -0.404838,0 -0.664273,0.2286298 -3.733917,3.2905614 -3.447821,3.4391576 -3.645335,3.6985776 -3.302994,4.3382476 0.150778,0.28173 0.520139,0.477845 0.924338,0.490784 0.160523,0.0051 1.412218,-1.160579 3.663487,-3.4118481 z m -2.46995,-2.4699502 c 0.733671,-0.7336712 0.840765,-0.8983691 0.840765,-1.2929952 0,-0.5791805 -0.34935,-0.9447995 -0.902757,-0.9447995 -0.348232,0 -0.543529,0.1375152 -1.292995,0.9104435 -0.964929,0.9951347 -1.064634,1.2880374 -0.627586,1.8436537 0.191276,0.2431681 0.36629,0.3244629 0.698515,0.3244629 0.383582,0 0.556541,-0.1132488 1.284058,-0.8407654 z"
   style="fill:#a0a0a0;stroke:none;stroke-width:0.123142" /><path
   id="path51"
   d="m 8.0499016,16.02208 v -5.910836 h 4.9256964 4.925696 v 5.910836 5.910835 H 12.975598 8.0499016 Z m 5.5468704,2.955935 c 0.495131,-0.137551 1.147177,-0.755181 1.341551,-1.270744 0.321521,-0.852806 -0.05806,-1.969905 -0.83185,-2.448135 -0.679347,-0.41986 -1.685484,-0.391958 -2.282348,0.06329 -0.581838,0.443789 -0.847223,0.971534 -0.847223,1.68479 0,0.944923 0.459424,1.599515 1.344047,1.915011 0.572694,0.204248 0.718467,0.210622 1.275823,0.05579 z"
   style="fill:#a0a0a0;stroke:none;stroke-width:0.123142" /><path
   id="path53"
   d="M 8.0499016,6.9711129 V 6.0475448 h 4.9256964 4.925696 v 0.9235681 0.923568 H 12.975598 8.0499016 Z"
   style="fill:#a0a0a0;stroke:none;stroke-width:0.123142" /><path
   id="path55"
   d="m 8.0499016,3.0305559 v -0.923568 h 4.9256964 4.925696 V 3.0305559 3.954124 H 12.975598 8.0499016 Z"
   style="fill:#a0a0a0;stroke:none;stroke-width:0.123142" /><path
   id="path57"
   d="M 2.0159237,25.011475 V 24.026336 H 32.001099 61.986275 v 0.985139 0.98514 H 32.001099 2.0159237 Z"
   style="fill:#a0a0a0;stroke:none;stroke-width:0.123142" /><path
   id="path59"
   d="m 30.092392,31.045453 v -2.955418 h 12.929953 12.929952 v 2.955418 2.955418 H 43.022345 30.092392 Z"
   style="fill:#a0a0a0;stroke:none;stroke-width:0.123142" /><path
   id="path61"
   d="M 58.045718,45.022116 V 28.090035 h 0.923568 0.923568 v 16.932081 16.932081 h -0.923568 -0.923568 z"
   style="fill:#a0a0a0;stroke:none;stroke-width:0.123142" /><path
   id="path63"
   d="m 8.0499016,35.971149 v -3.940557 h 7.9426854 7.942685 v 3.940557 3.940557 H 15.992587 8.0499016 Z m 10.7245064,0.755998 c 0.322035,-0.398097 0.306435,-1.095262 -0.03258,-1.45613 -0.262782,-0.279719 -0.31402,-0.285007 -2.761766,-0.285007 h -2.494016 l -0.255223,0.324463 c -0.285354,0.362769 -0.335475,1.005581 -0.101294,1.299114 0.343508,0.430568 0.619945,0.470672 3.028106,0.439299 2.336826,-0.03044 2.38603,-0.03649 2.616776,-0.321739 z"
   style="fill:#a0a0a0;stroke:none;stroke-width:0.123142" /><path
   id="path65"
   d="M 4.1093446,42.990266 V 28.090035 H 16.054158 27.998971 V 42.990266 57.890498 H 16.054158 4.1093446 Z M 26.028693,50.009384 V 43.975406 H 15.992587 5.9564807 v 6.033978 6.033977 H 15.992587 26.028693 Z m 0,-14.038235 V 29.937171 H 15.992587 5.9564807 v 6.033978 6.033978 H 15.992587 26.028693 Z"
   style="fill:#a0a0a0;stroke:none;stroke-width:0.123142" /><path
   id="path67"
   d="m 8.0499016,50.009384 v -3.940557 h 7.9426854 7.942685 v 3.940557 3.940557 H 15.992587 8.0499016 Z m 10.6421664,0.748174 c 0.214643,-0.201817 0.317508,-0.427951 0.317508,-0.697997 0,-1.047862 -0.28822,-1.158459 -3.01897,-1.158459 -2.186978,0 -2.531831,0.05816 -2.857164,0.481898 -0.254798,0.331865 -0.190891,1.045553 0.119226,1.331479 0.399949,0.36875 0.544191,0.386523 2.945767,0.362963 2.119649,-0.02079 2.184366,-0.0291 2.493633,-0.319884 z"
   style="fill:#a0a0a0;stroke:none;stroke-width:0.123142" /><path
   id="path69"
   d="m 24.058414,61.030629 v -0.923568 h 0.923568 0.923568 v 0.923568 0.923568 h -0.923568 -0.923568 z"
   style="fill:#a0a0a0;stroke:none;stroke-width:0.123142" /><path
   id="path71"
   d="m 6.0796231,61.030629 v -0.923568 h 0.9235681 0.923568 v 0.923568 0.923568 H 7.0031912 6.0796231 Z"
   style="fill:#a0a0a0;stroke:none;stroke-width:0.123142" /><path
   id="path73"
   d="m 56.009876,9.0029626 c 0,-3.8266503 0.01562,-5.3920981 0.0347,-3.478773 0.01908,1.9133251 0.01908,5.0442204 0,6.9575464 -0.01908,1.913325 -0.0347,0.347877 -0.0347,-3.4787734 z"
   style="fill:#a0a0a0;stroke:none;stroke-width:0.123142" /></svg>
